<svg xmlns="http://www.w3.org/2000/svg" width="935.973" height="165.635" viewBox="0 0 935.973 165.635">
  <g id="Group_3" data-name="Group 3" transform="translate(-114.134 -353.394)">
    <g id="Group_1" data-name="Group 1">
      <path id="Path_1" data-name="Path 1" d="M396.85,364.067V516.186H286.671V460.03h30.566v25.59h49.048V364.067Z" fill="#363f3f"/>
      <path id="Path_2" data-name="Path 2" d="M523.379,364.067V516.9H421.019V364.067h30.566V486.331h41.228V364.067Z" fill="#363f3f"/>
      <path id="Path_3" data-name="Path 3" d="M647.064,364.778V516.9H617.472l-.874.426L577.4,436.7v80.2H546.836V364.778H577.4v2l39.1,80.431V364.778Z" fill="#363f3f"/>
      <path id="Path_4" data-name="Path 4" d="M915.759,485.62v30.566H805.58V364.067h30.566V485.62Z" fill="#363f3f"/>
      <path id="Path_5" data-name="Path 5" d="M701.8,396.766v91.7h49.048v-26.3h-25.59V431.6h56.156v87.433H671.232V366.2H781.412v30.566Z" fill="#363f3f"/>
      <path id="Path_6" data-name="Path 6" d="M970.494,394.633v32.7h79.614V457.9H970.494v29.144h79.614v30.566H939.928V364.067h110.179v30.566Z" fill="#363f3f"/>
    </g>
    <g id="Group_2" data-name="Group 2">
      <path id="Path_7" data-name="Path 7" d="M254.331,440.718q-29.493-.205-58.985-.4v76.142h-22.29V440.321q-29.454.037-58.922.1l.074-22.389h43.1q-16.383-16.419-32.777-32.852c2.479-2.752,4.959-5.479,7.45-8.219q3.683-4.072,7.4-8.12,16.83,16.7,33.67,33.422-.056-24.434-.111-48.868c1.835.173,4.624.371,8.07.359,1.364,0,2.294-.037,3.186-.062,2.492-.087,6.174-.136,11.021,0q.056,24.286.124,48.571,16.866-16.866,33.732-33.719,3.552,4.166,7.352,8.417c2.516,2.827,5.02,5.554,7.5,8.219q-16.42,16.421-32.84,32.852h43.117Q254.263,429.374,254.331,440.718Z" fill="#137771"/>
    </g>
  </g>
</svg>
