<svg id="Group_3" data-name="Group 3" xmlns="http://www.w3.org/2000/svg" width="597.56" height="565.44" viewBox="0 0 597.56 565.44">
  <path id="Path_2" data-name="Path 2" d="M576.93,565.44H20.64A20.639,20.639,0,0,1,0,544.8V20.64A20.639,20.639,0,0,1,20.64,0H576.92a20.639,20.639,0,0,1,20.64,20.64V544.8A20.624,20.624,0,0,1,576.93,565.44Z" fill="#137771"/>
  <g id="Group_2" data-name="Group 2">
    <path id="Path_3" data-name="Path 3" d="M476.17,297.38q-74.625-.51-149.26-1.01V489.05H270.52V296.37q-74.565.135-149.11.26.09-28.335.18-56.66h109.1l-82.97-83.15q9.42-10.41,18.85-20.78,9.36-10.29,18.73-20.56l85.23,84.57q-.15-61.83-.29-123.66c4.63.44,11.69.96,20.42.92,3.46-.01,5.8-.11,8.05-.18,6.33-.2,15.64-.34,27.9.01q.15,61.455.31,122.91,42.69-42.66,85.37-85.32,8.985,10.545,18.59,21.31,9.57,10.71,18.99,20.78-41.55,41.58-83.11,83.15h109.1Q476.01,268.68,476.17,297.38Z" fill="#f6efe5"/>
  </g>
</svg>
